<svg xmlns="http://www.w3.org/2000/svg" viewBox="0 0 64 64" width="64" height="64">
  <defs>
    <linearGradient id="bg" x1="0%" y1="0%" x2="100%" y2="100%">
      <stop offset="0%" style="stop-color:#3B82F6"/>
      <stop offset="100%" style="stop-color:#1E40AF"/>
    </linearGradient>
    <linearGradient id="star" x1="0%" y1="0%" x2="100%" y2="100%">
      <stop offset="0%" style="stop-color:#FCD34D"/>
      <stop offset="100%" style="stop-color:#F59E0B"/>
    </linearGradient>
  </defs>
  
  <!-- Background circle -->
  <circle cx="32" cy="32" r="30" fill="url(#bg)" stroke="#1E40AF" stroke-width="2"/>
  
  <!-- Clipboard base -->
  <rect x="18" y="16" width="28" height="32" rx="2" fill="#FFFFFF" stroke="#E5E7EB" stroke-width="1"/>
  
  <!-- Clipboard clip -->
  <rect x="26" y="12" width="12" height="6" rx="1" fill="#6B7280"/>
  <rect x="28" y="14" width="8" height="2" rx="0.5" fill="#9CA3AF"/>
  
  <!-- Stars for rating -->
  <g transform="translate(20, 22)">
    <polygon points="12,4 14.4,8.8 20,9.6 16,13.6 16.8,19.2 12,16.8 7.2,19.2 8,13.6 4,9.6 9.6,8.8" 
             fill="url(#star)" stroke="#F59E0B" stroke-width="0.5"/>
    <polygon points="6,12 7.2,14.4 10,14.8 8,16.8 8.4,19.6 6,18.4 3.6,19.6 4,16.8 2,14.8 4.8,14.4" 
             fill="url(#star)" stroke="#F59E0B" stroke-width="0.3" transform="scale(0.6)"/>
    <polygon points="18,12 19.2,14.4 22,14.8 20,16.8 20.4,19.6 18,18.4 15.6,19.6 16,16.8 14,14.8 16.8,14.4" 
             fill="url(#star)" stroke="#F59E0B" stroke-width="0.3" transform="scale(0.6)"/>
  </g>
  
  <!-- Check mark -->
  <path d="M20 38 L26 44 L44 26" stroke="#10B981" stroke-width="2.5" fill="none" stroke-linecap="round" stroke-linejoin="round"/>
</svg>